<?xml version="1.0" encoding="UTF-8"?>
<svg width="120" height="40" viewBox="0 0 120 40" fill="none" xmlns="http://www.w3.org/2000/svg">
  <path d="M20 0C8.954 0 0 8.954 0 20C0 31.046 8.954 40 20 40C31.046 40 40 31.046 40 20C40 8.954 31.046 0 20 0ZM20 30C14.477 30 10 25.523 10 20C10 14.477 14.477 10 20 10C25.523 10 30 14.477 30 20C30 25.523 25.523 30 20 30Z" fill="url(#paint0_linear)"/>
  <path d="M50 10H55.5L60 20L64.5 10H70L62 25V30H58V25L50 10Z" fill="white"/>
  <path d="M72 10H85V15H77V17.5H84V22.5H77V25H85V30H72V10Z" fill="white"/>
  <path d="M87 10H92V25H100V30H87V10Z" fill="white"/>
  <defs>
    <linearGradient id="paint0_linear" x1="0" y1="0" x2="40" y2="40" gradientUnits="userSpaceOnUse">
      <stop stop-color="#6C63FF"/>
      <stop offset="1" stop-color="#43CEA2"/>
    </linearGradient>
  </defs>
</svg>